<?xml version="1.0" standalone="no"?>
<!DOCTYPE svg PUBLIC "-//W3C//DTD SVG 20010904//EN"
 "http://www.w3.org/TR/2001/REC-SVG-20010904/DTD/svg10.dtd">
<svg version="1.0" xmlns="http://www.w3.org/2000/svg"
 width="912.000000pt" height="912.000000pt" viewBox="0 0 912.000000 912.000000"
 preserveAspectRatio="xMidYMid meet">
<metadata>
Created by potrace 1.11, written by Peter Selinger 2001-2013
</metadata>
<g transform="translate(0.000000,912.000000) scale(0.100000,-0.100000)"
fill="#000000" stroke="none">
<path d="M3276 8380 c-90 -11 -196 -35 -326 -71 -554 -158 -1100 -552 -1501
-1084 -416 -551 -660 -1201 -718 -1908 -26 -312 -10 -873 35 -1197 92 -675
350 -1352 707 -1855 521 -735 1251 -1204 2122 -1364 123 -23 385 -54 392 -47
2 2 -22 11 -54 20 -249 70 -622 256 -857 431 -269 198 -545 471 -821 809 l-89
109 34 -6 c19 -4 107 -30 196 -58 l161 -51 91 -127 c433 -596 886 -919 1442
-1026 193 -38 551 -30 785 17 177 35 202 45 383 150 l177 103 130 12 c436 39
756 183 1046 472 211 211 339 399 390 576 23 79 42 122 66 152 18 23 33 44 33
47 0 3 -221 7 -492 8 l-492 3 -38 275 c-20 151 -53 394 -72 540 -20 146 -58
429 -85 630 -27 201 -67 492 -88 648 -28 208 -41 279 -48 268 -6 -8 -256 -546
-555 -1195 l-545 -1181 -170 2 -170 3 -492 1070 c-605 1316 -602 1309 -607
1304 -4 -4 -49 -323 -126 -899 -23 -168 -56 -417 -75 -555 -19 -137 -52 -389
-75 -560 -23 -170 -43 -320 -46 -332 l-4 -23 -580 0 c-496 0 -580 2 -580 14 0
8 11 86 25 173 14 87 41 263 60 391 19 127 51 334 70 460 19 125 57 378 85
562 28 184 80 526 116 759 35 233 73 482 84 555 11 72 38 250 60 396 22 146
58 384 80 530 22 146 42 275 45 288 l5 22 573 0 572 0 114 -262 c63 -145 131
-301 152 -348 20 -47 107 -247 193 -445 403 -927 521 -1195 526 -1195 3 0 226
506 496 1123 l490 1122 571 3 571 2 6 -32 c3 -18 24 -152 45 -298 22 -146 59
-386 81 -535 22 -148 72 -477 110 -730 38 -253 92 -611 120 -795 28 -184 62
-409 75 -500 14 -91 47 -313 75 -495 28 -181 57 -377 65 -435 20 -139 23 -150
38 -150 17 0 209 121 292 185 192 147 368 371 440 559 11 27 21 44 22 39 9
-27 -107 -339 -183 -493 -146 -292 -323 -529 -590 -790 -362 -353 -729 -611
-1599 -1122 l-300 -176 -150 -32 c-217 -45 -208 -42 -150 -51 90 -13 334 -10
444 7 553 81 1070 404 1565 978 38 43 107 111 155 151 530 445 869 1099 996
1918 54 352 59 435 60 977 0 481 -1 511 -22 625 -13 66 -32 172 -43 235 -48
272 -150 624 -252 865 -440 1049 -1213 1677 -2173 1765 -129 12 -375 13 -392
2 -7 -4 29 -17 85 -31 387 -93 754 -272 1062 -518 104 -83 331 -308 427 -423
98 -117 272 -363 347 -490 82 -138 189 -340 181 -340 -4 0 -33 23 -64 52 -133
121 -364 285 -584 413 -110 64 -122 74 -194 164 -97 122 -342 367 -453 453
-283 219 -595 374 -930 462 -264 69 -408 86 -825 97 -187 5 -406 12 -488 15
-320 13 -623 -65 -901 -230 -43 -25 -112 -60 -153 -77 -184 -77 -406 -210
-563 -336 -166 -134 -356 -343 -485 -533 -42 -62 -76 -99 -129 -139 -39 -29
-77 -58 -85 -65 -22 -17 83 148 164 259 108 148 192 246 328 383 464 470 955
713 1717 852 96 18 182 34 190 37 22 7 -7 17 -131 44 -87 18 -141 22 -329 25
-124 1 -256 -1 -294 -6z m4783 -3670 c27 -180 41 -347 39 -445 0 -44 -3 -64
-5 -45 -15 138 -39 278 -72 422 -31 128 -38 174 -31 200 4 18 12 51 16 73 l7
40 13 -55 c8 -30 22 -116 33 -190z m-6938 -220 c-6 -47 -16 -128 -23 -180 -10
-82 -13 -90 -19 -60 -15 74 -29 259 -28 389 l0 136 40 -100 41 -100 -11 -85z"/>
</g>
</svg>
