<svg width="999" height="588" viewBox="0 0 999 588" fill="none" xmlns="http://www.w3.org/2000/svg">
<g style="mix-blend-mode:difference">
<path d="M262.89 196.872C288.156 252.917 303.082 303.813 294.219 345.698C285.357 387.583 263.413 439.882 222.755 473.152C182.174 506.423 122.956 520.565 84.2416 505.415C45.6045 490.265 16.9182 426.299 13.8085 366.987C10.6991 307.674 -21.7955 235.376 25.732 166.79C55.3512 109.458 129.487 78.4458 165.714 79.0399C202.019 79.733 237.624 140.828 262.89 196.872Z" fill="#004093"/>
</g>
<g style="mix-blend-mode:difference">
<path d="M779.92 355.39C719.246 365.289 666.222 366.534 628.058 347.133C589.894 327.732 545.056 292.999 523.442 245.116C501.808 197.307 503.475 136.447 528.129 102.972C552.762 69.5724 621.973 58.4193 680.07 70.7668C738.166 83.1145 816.411 70.4392 870.359 134.099C918.071 177.547 928.839 257.183 918.889 292.022C908.823 326.911 840.595 345.49 779.92 355.39Z" fill="#CA0005"/>
</g>
<g style="mix-blend-mode:difference">
<path d="M333.611 350.037C314.17 388.946 353.03 448.038 393.419 476.543C433.808 505.049 475.721 502.869 538.575 510.659C601.311 518.353 684.758 536.026 727.006 502.107C769.25 468.088 770.066 382.487 726.772 335.883C683.473 289.179 596.068 281.573 513.546 286.981C430.913 292.495 353.166 311.123 333.611 350.037Z" fill="#F76200"/>
</g>
<g style="mix-blend-mode:difference">
<path d="M559.829 313.7C580.26 358.5 517.169 423.5 465.256 463C413.343 502.5 372.61 516.5 326.737 518.8C280.992 521 230.108 511.5 180.637 473.1C131.037 434.7 82.8508 367.3 108.293 320.3C133.607 273.2 232.678 246.3 334.19 245.3C435.573 244.2 539.527 268.8 559.829 313.7Z" fill="#00A862"/>
</g>
<g style="mix-blend-mode:difference">
<path d="M275.381 192.497C265.565 166.035 326.715 119.689 376.895 99.8666C405.283 88.6524 466.167 87.0197 516.803 100.325C567.531 113.669 629.631 133.487 649.266 182.065C668.863 230.736 645.823 308.311 605.043 321.377C564.131 334.495 505.308 283.248 435.571 254.308C365.795 225.46 285.105 218.92 275.381 192.497Z" fill="#EFBD00"/>
</g>
<g style="mix-blend-mode:difference">
<path d="M310.408 347.85C223.806 347.876 137.162 197.906 180.441 122.895C223.721 47.8829 396.925 47.8294 440.247 122.814C483.569 197.799 397.01 347.823 310.408 347.85Z" fill="#00A2C7"/>
</g>
<g style="mix-blend-mode:difference">
<path d="M793.735 235.558C879.859 226.473 981.715 366.558 946.518 445.685C911.322 524.812 739.074 542.981 688.146 472.939C637.219 402.897 707.611 244.642 793.735 235.558Z" fill="#00A2C7"/>
</g>
</svg>
